<svg xmlns="http://www.w3.org/2000/svg" viewBox="0 0 56.94 105.26"><defs><style>.cls-1{fill:#e06900;}</style></defs><title>faq</title><g id="Objects"><path class="cls-1" d="M27.27,2.08C36.43.82,43.53,5.69,49.59,11.54c7,6.74,7.56,21.72,2.67,30.67A37.76,37.76,0,0,1,35.5,57.82c-8.14,4.11-11.75,10.31-11.65,19.23.06,5.94-3.74,9-8.59,6.88C12,82.52,9.43,80.1,9,76c-.9-8.79,1.44-16.29,7.71-22.71,4.63-4.75,10.37-7.9,15.52-11.89a26.08,26.08,0,0,0,4.71-5c4.83-6.36,2.43-11.06-2.12-16.33-2-2.3-11.49-1.95-13.63.08C20,21.29,20.3,22.62,20.5,24a10.66,10.66,0,0,1-3.43,9.61A8.54,8.54,0,0,1,3.43,30.82c-6-13,5.76-29.79,20.4-29.08C24.92,1.79,26,2,27.27,2.08Zm-1,3.66C15.41,3.47,5.16,14,4.4,22.19c-.37,4,1.43,6.9,4.1,9.21a5.08,5.08,0,0,0,6.15,0c1.86-1.26,3.1-2.94,2.55-5.52-.61-2.9-1.52-6,1.27-8.36C25,12,37.65,14.86,41.11,22.66c4,8.93.66,17.32-9.37,23.63a81.31,81.31,0,0,0-11.41,8.45c-6.12,5.54-9.2,12.25-8,20.68.44,3.15,2.07,5.13,5.12,5.35,3.72.27,2.76-2.81,3-4.94a61.32,61.32,0,0,1,1.28-8C23.5,61.54,28.54,58.21,33.66,55c6-3.71,12-7.2,15.7-13.76,4.81-8.63,3.88-21.57-4.72-28.89C39.12,7.71,33.15,5.39,26.25,5.74Z"/><path class="cls-1" d="M26.87,96.49c.07,4.66-3.59,8.8-7.74,8.77s-8.51-4-8.46-7.74c.05-4.16,4.49-8.46,8.83-8.57A7.48,7.48,0,0,1,26.87,96.49ZM19,101.6c3.17-.11,5.11-1.7,5.07-4.48a4.63,4.63,0,0,0-4.9-4.54c-2.64,0-5.21,1.28-5.23,4.57S16.7,101.06,19,101.6Z"/></g></svg>