<svg id="Camada_1" data-name="Camada 1" xmlns="http://www.w3.org/2000/svg" viewBox="0 0 398.16 398.8"><defs><style>.cls-1{fill:#cd6721;opacity:0.81;}.cls-2{fill:#fff;}</style></defs><title>icon-media</title><path class="cls-1" d="M398.12,200.34c2.57,104.17-85.45,200.89-203,198.62C90,396.93-.78,312,0,197.86.69,86.82,91-1.77,203.59.18,314.1,2.1,401.15,94.62,398.12,200.34ZM293.77,170.42c0-9.75-.09-19,0-28.34.06-4.78-2.49-6.15-6.77-6.62C262,132.67,249,116.52,244.13,95.91c-.81-3.44-1.55-6.89-2.27-10.07H203.4V97.47q0,70.93-.08,141.88a61,61,0,0,1-1.85,15.72,30.73,30.73,0,0,1-40.17,20.77c-14.21-5.31-22-18.52-20-34C143,228.58,155,217.24,169,215.69c3.22-.35,6.47-.44,10.8-.73,0-8.72,0-17,0-25.21-.07-10.19-.34-10.56-10.88-10.22-38.44,1.26-69.32,36.38-63.61,76.78,6.13,43.31,51.79,69.83,92.08,52.92,25.79-10.82,41.61-34.44,41.68-62.45.07-27,0-54,0-80.94,0-3.11.38-6.23.62-9.81C260,169.39,277.73,174.19,293.77,170.42Z"/><path class="cls-2" d="M293.77,170.42c-16,3.77-33.75-1-54-14.39-.24,3.58-.62,6.7-.62,9.81,0,27,0,54,0,80.94-.07,28-15.89,51.63-41.68,62.45-40.29,16.91-85.95-9.61-92.08-52.92-5.71-40.4,25.17-75.52,63.61-76.78,10.54-.34,10.81,0,10.88,10.22.05,8.24,0,16.49,0,25.21-4.33.29-7.58.38-10.8.73-14,1.55-26,12.89-27.7,26.11-2,15.52,5.8,28.73,20,34a30.73,30.73,0,0,0,40.17-20.77,61,61,0,0,0,1.85-15.72q.19-70.93.08-141.88V85.84h38.46c.72,3.18,1.46,6.63,2.27,10.07C249,116.52,262,132.67,287,135.46c4.28.47,6.83,1.84,6.77,6.62C293.68,151.37,293.77,160.67,293.77,170.42Z"/></svg>