<svg id="Camada_1" data-name="Camada 1" xmlns="http://www.w3.org/2000/svg" viewBox="0 0 398.26 398.84"><defs><style>.cls-1{fill:#cd6721;opacity:0.81;}.cls-2{fill:#fff;}</style></defs><title>icon-media</title><circle class="cls-1" cx="199.13" cy="199.3" r="199.28"/><path class="cls-2" d="M95.48,198.57c0-18.32.48-36.66-.13-55-.8-24.18,21.85-48.38,47.3-48.49,38-.15,76-.33,114,.06,24.86.26,46.76,21.75,47.11,46.59q.78,57.47,0,115c-.4,25.87-22.94,46.87-48.82,46.9-37,0-74-.14-111,.06-29.42.15-49.56-27.22-48.62-48.13C96.15,236.59,95.48,217.57,95.48,198.57Zm18.39.81c0,16.67-.05,33.33,0,50a35.18,35.18,0,0,0,1,8.82c4,15.28,16.15,26,32.17,26.79,17.62.87,35.31.57,53,.56,17.33,0,34.67.22,52-.59a34.81,34.81,0,0,0,33.38-34.55q.75-51,0-102c-.27-19.56-15.92-34.62-35.33-34.74-33.66-.23-67.32,0-101-.1-21-.08-35.8,18.95-35.27,35.81C114.28,166,113.87,182.72,113.87,199.38Z"/><path class="cls-2" d="M199.3,253.62a53.5,53.5,0,0,1-53.82-53.77c0-30.72,23.45-54.59,53.92-54.77a54.17,54.17,0,0,1,54.46,54.43C253.73,230,229.94,253.6,199.3,253.62Zm.23-18.57c19.25-.15,35.69-16.09,35.68-35.64,0-22-17.84-35.33-35.55-35.68-18.92-.38-35.9,16.84-35.79,35.6C164,218.34,180.58,235,199.53,235.05Z"/><path class="cls-2" d="M246.24,141.84c0-6.93,4.4-11,11.47-10.74,6.47.25,10.18,4.27,10.14,11,0,6.22-4.57,11.11-10.33,11.13C250.91,153.27,246.2,148.51,246.24,141.84Z"/></svg>