<svg xmlns="http://www.w3.org/2000/svg" viewBox="0 0 65.99 60.77"><defs><style>.cls-1{fill:#e06900;}</style></defs><title>847550_45093-O4HX7J</title><g id="Objects"><path class="cls-1" d="M65.4,15.38C58.48,11.66,51.8,7.45,44.77,3.9a.76.76,0,0,0-1,.18h-.1c-1.68.23-3.29,2-4.13,3.37a5.86,5.86,0,0,0-.53,4.16c-1.78,0-3.56.12-5.34.21.6-2.4-.26-6.23-2.26-7.64C28.89,2.39,24.86,3,22,3.05a1.18,1.18,0,0,0-1.17,1.17c.15,2.69.26,5.41.51,8.09a11.58,11.58,0,0,0-5.41,1.44s0,0,0,.05a.88.88,0,0,0-1.36.19v0a.52.52,0,0,0-.71-.09c-4,2.67-3.95,3-3.83,7.74.09,3.2-.15,8.33,2.12,11,1.58,1.85,4.22.94,6.34.74.67-.06,1.33-.14,2-.22a43.06,43.06,0,0,0-.7,10.59c.13,4-.28,8.1.11,12.05.57,5.69,7.78,3.68,11.56,4a1.3,1.3,0,0,0,1.3-1.29c-.09-8.67-2-18.12-.21-26.7,3.42-.15,4.61.62,6,4.61a1.25,1.25,0,0,0,2.06.55,42,42,0,0,0,4.42-3.88,1.74,1.74,0,0,0,.56.62.87.87,0,0,0,.88,0A1.62,1.62,0,0,0,47,32.9a.8.8,0,0,0,.81.16c7.17-2.44,12.63-8.8,17.15-14.58a1.34,1.34,0,0,0,.28-1,1.16,1.16,0,0,0,.21-2.11m-42.35-10c2.21-.06,4.82-.25,6.71.7S31,10.13,31.46,12l-2.59.16c-1.78.13-4,0-6.26.11.21-2.28.32-4.58.44-6.87m3.32,51.87c-4.39.18-4.15-3.7-4-6.69.36-5.86-1-11.66-.73-17.55,2.6-.32,5.2-.7,7.8-1-.64,2.77-.16,6.71-.14,8.37.06,5.6.59,11.17.72,16.76-1.22,0-2.45,0-3.68.08M47,31.3s0,0,0,0c-.06-.31-.12-.61-.17-.9a44.47,44.47,0,0,1-.59-5.38.63.63,0,0,0-.7-.63.83.83,0,0,0-.77-.36c-8.94.54-18.78.32-27.51,2.7,0-2.34-.24-4.68-.45-7-.15-1.7,0-3.64-.6-5.27,3,1.61,7.65.43,10.91.23,5.75-.36,11.5-.78,17.26-.59A1.24,1.24,0,0,0,45.21,12c.1-1.13.13-2.27.13-3.4a14.32,14.32,0,0,0-.13-2.44C51,10,57,13.52,63.05,16.8c-4.42,5.7-9.43,11.33-16,14.5"/><path class="cls-1" d="M30,18.73a2.64,2.64,0,0,0-2.21-1.17,3.54,3.54,0,0,0-2.39.76,2.4,2.4,0,0,0-.81.2,2.42,2.42,0,0,0-1.17,2.19A2.79,2.79,0,0,0,24.76,23a3.92,3.92,0,0,0,3.39-.11c1.56-.67,2.77-2.54,1.8-4.18m-1.8,1.37a1.25,1.25,0,0,1-.5.69c-.52.36-1.9.84-2.22,0a.9.9,0,0,1,.21-1c.84.08,2-.52,2.46,0a.38.38,0,0,1,0,.34"/></g></svg>