<svg xmlns="http://www.w3.org/2000/svg" viewBox="0 0 59.23 60.69"><defs><style>.cls-1{fill:#e06900;}</style></defs><title>847550_45093-O4HX7J</title><g id="Objects"><path class="cls-1" d="M9.77,55.61A22.25,22.25,0,0,1,15.2,40.46c1.7-2,3.37-4,5.06-5.94a15,15,0,0,0,2.45-4,5.74,5.74,0,0,0-.52-6c-4.12-6.15-2.94-14.28,2.3-19.57,6.14-6.22,13-5.71,19.32-2.49,7.37,3.74,9.21,9.79,8.34,16.68S45.61,30.83,38.2,31.79a9.77,9.77,0,0,1-4.5,0c-1-.35-1.57.46-2.15,1.11-2.24,2.5-3.07,5.67-4.13,8.73A31.75,31.75,0,0,1,12,59.6c-1.09.59-1.67.31-1.87-.8S9.85,56.37,9.77,55.61ZM35.15,4.42A11.45,11.45,0,0,0,23.66,15.78C23.49,22,29.61,28.4,35.6,28.13,44.93,27.7,48,24.62,48.42,15.06,48.71,8.26,42.61,4.44,35.15,4.42ZM12.15,54c0,.5,0,1,0,1.51-.05,1.26.48,1.71,1.51.88a50.23,50.23,0,0,0,6.27-5.3c4.28-4.78,6-10.78,8.1-16.59.7-2-1.6-1.55-2.4-2.34s-1.39-.43-1.9.43A49.37,49.37,0,0,1,17.78,40C14.24,44,11.59,48.36,12.15,54Zm18-22.79-3.76-1.81A3.68,3.68,0,0,0,30.14,31.22Z"/></g></svg>