<svg xmlns="http://www.w3.org/2000/svg" viewBox="0 0 55.15 53.7"><defs><style>.cls-1{fill:#e06900;}</style></defs><title>847550_45093-O4HX7J</title><g id="Objects"><path class="cls-1" d="M32.92,1.51c-1,1.3-1,3.3-1.32,4.85-.24,1.3-.43,2.6-.59,3.92-2-2.19-3.05-5.34-4.71-7.65a1.24,1.24,0,0,0-2.3.62,30.88,30.88,0,0,0,1.44,12c.21.61,1.25.55,1.19-.16a75.43,75.43,0,0,1-.35-7.75c1.36,2.38,2.69,4.72,5,6.43A1.22,1.22,0,0,0,33.09,13c.3-2,.61-4,1-6,.29-1.6,1-3.33,1-5a1.13,1.13,0,0,0-2.09-.56"/><path class="cls-1" d="M39.39,25.39c-3,.06-6.08.35-9.13.59,0-.35.09-.7.13-1.06.81-.82,1.65-1.61,2.54-2.35s1.8-1.11,2.2-2.18a.89.89,0,0,0-.62-1.08c-1.19-.49-2.56.44-3.77,1.64a12.07,12.07,0,0,0-.41-3.76.81.81,0,0,0-1.54,0,39.47,39.47,0,0,0-.58,6.74l-.16.2c-.22.26-.43.54-.65.8a28.26,28.26,0,0,0-5.06-3.62c-.41-.2-1,.23-.67.67A20.79,20.79,0,0,0,26,26.24c-2.33.05-7.15-.1-8.11,2a.34.34,0,0,0,.11.45c1.06.7,1.4.34,2.8.16s2.52-.25,3.79-.3a43.4,43.4,0,0,0-3.15,5,.76.76,0,0,0,1.32.77c1.41-2,2.91-4,4.48-5.84l.48,0h.35a23.9,23.9,0,0,0,1,8.75c.18.51,1.07.47,1-.13A43.25,43.25,0,0,1,30,29.44a33.42,33.42,0,0,0,4.88,3.13c1.34.68,2.51-1.31,1.18-2s-2.51-1.39-3.72-2.15a23.34,23.34,0,0,0,7.34-.94,1.06,1.06,0,0,0-.28-2.08"/><path class="cls-1" d="M32.35,45.36A13.47,13.47,0,0,1,30,42.91c-.57-.8-1.23-1.53-1.77-2.36l0,0a19.77,19.77,0,0,1,2.56.13c1,.06,1.06-1.33.22-1.62-1.22-.42-4.81-1.51-5.29.63-.38,1.65,1.09,3,2,4.22A17.49,17.49,0,0,0,29.26,46c.86.83,3.41,2,1.59,3.34-1.17.84-2.9.78-4.26.7-1.08-.06-2.25-.72-3.32-.57a1,1,0,0,0-.94,1.24c.61,2.19,4.46,2,6.19,1.92,2.73-.2,5.19-1.45,5.45-4.41a3.8,3.8,0,0,0-1.62-2.85"/><path class="cls-1" d="M15.68,21.83a1.11,1.11,0,0,0-2.16.3c-.14,2.46,0,4.57-1,6.77a4.36,4.36,0,0,1-2.27-4.11c0-.4,0-.78,0-1.09A1.14,1.14,0,0,0,8,23.7a11.25,11.25,0,0,0,0,1.64c-.09,1.94-.53,4.43-2.39,4.55-2.47.17-2.72-4.76-2.82-6.19a.72.72,0,0,0-1.44,0C1,26.82,1.78,31.49,5.58,32c1.9.23,3.06-1.07,3.74-2.77a6.75,6.75,0,0,0,3.41,2.34A1.2,1.2,0,0,0,14.07,31c1.59-2.6,2.49-6.15,1.61-9.15"/><path class="cls-1" d="M53.65,20.89c-2.13-1.43-5.09-1.17-7.51-.76a1.28,1.28,0,0,0-.88,1.54c.52,3.62-.44,7.29.45,10.89S50,36.42,52.79,35c.9-.43.25-1.74-.65-1.54-1.21.27-2.86.8-3.65-.5a8,8,0,0,1-.75-3.86v-.25a15.31,15.31,0,0,0,5.29-.3c1-.3.88-2.06-.27-2-.91.08-1.8.3-2.72.38-.77.08-1.53.11-2.3.16,0-1.57.13-3.14,0-4.7,1.81-.1,3.53.28,5.36.24a1,1,0,0,0,.5-1.82"/></g></svg>