<svg xmlns="http://www.w3.org/2000/svg" viewBox="0 0 61.79 61.11"><defs><style>.cls-1{fill:#e06900;}</style></defs><title>847550_45093-O4HX7J</title><g id="Objects"><path class="cls-1" d="M38.6,14.77c-9.26-1.87-19,4.57-19.9,14.1s5.39,18.55,15.54,17.66a1,1,0,0,0,.51-.2c15.61,0,20-28.31,3.85-31.56m-4,29.33a1,1,0,0,0-.92.53c-8.08-.82-13.15-6.43-12.91-14.73C21.08,20.6,30.44,15.28,39,17c13.17,2.69,8.14,27.2-4.33,27.08"/><path class="cls-1" d="M60.42,23.4a1.2,1.2,0,0,0-.7-1.73,20.11,20.11,0,0,0-5.45-1.45c.9-1.55,1.78-3.1,2.61-4.69a1.19,1.19,0,0,0-1-1.76,47.66,47.66,0,0,0-5.73-.07,45.92,45.92,0,0,0,2.41-4.07,1.18,1.18,0,0,0-1-1.75c-2-.26-4.15-.57-6,.26-.07-1-.2-2.06-.32-3-.1-.76-1-1.6-1.76-1a22.21,22.21,0,0,0-4.22,4.1,24.81,24.81,0,0,0-2.45-4.85A1.16,1.16,0,0,0,35,3.12,18.66,18.66,0,0,0,32,8.26C30.8,6.63,29.71,5,28.52,3.37a1.13,1.13,0,0,0-1.93,0,16.85,16.85,0,0,0-2.27,6.9C22.47,9.53,20.66,8.73,18.79,8c-.78-.29-1.46.57-1.28,1.28.47,1.86.89,3.74,1.34,5.61a26.53,26.53,0,0,0-4.38-1.8,1.08,1.08,0,0,0-1.31,1.31c.24,1.19.41,2.37.7,3.52a49.62,49.62,0,0,0-6-.54A1.07,1.07,0,0,0,7,19a54.63,54.63,0,0,0,3.35,4.64,49.91,49.91,0,0,1-7.54.47,1,1,0,0,0-.53,1.94A37.3,37.3,0,0,0,7.69,29.7a25.77,25.77,0,0,0-5.08,1.56c-1.16.5-.4,2,.57,2.11,2.05.23,4.11.4,6.16.58a29.18,29.18,0,0,0-4.42,6,1.18,1.18,0,0,0,1,1.75c1.33.18,2.63.27,3.94.32A27.48,27.48,0,0,0,7.28,46.2a1.19,1.19,0,0,0,1,1.76,31.51,31.51,0,0,0,6-.5c-.39,1.77-.8,3.53-1.18,5.31a1.19,1.19,0,0,0,1.44,1.44,11.7,11.7,0,0,0,5.82-2.28,17.7,17.7,0,0,0,1.51,5.28,1.16,1.16,0,0,0,1.6.42A21.63,21.63,0,0,0,27.17,54a46.9,46.9,0,0,0,1.74,4.41,1.16,1.16,0,0,0,1.83.23,31.66,31.66,0,0,0,3.18-4.77A16.49,16.49,0,0,0,38,58a1.18,1.18,0,0,0,1.73-.7c.27-1.39.46-2.79.61-4.2a17.23,17.23,0,0,0,3.87,2.17c.75.31,1.56-.6,1.31-1.31a14.08,14.08,0,0,1-.56-3.28,24.39,24.39,0,0,0,5.43,1.13,1.12,1.12,0,0,0,1-1.67c-.47-.83-.86-1.69-1.27-2.55a35.75,35.75,0,0,1,3.85-.87,1.14,1.14,0,0,0,1-1.7,29.8,29.8,0,0,0-2-2.84,22.81,22.81,0,0,0,4.14-1,1.18,1.18,0,0,0,.69-1.7,15.61,15.61,0,0,0-3.56-4.79,24.4,24.4,0,0,1,5.12-3.84,1.18,1.18,0,0,0,0-2c-.92-.42-1.81-.85-2.71-1.27a23,23,0,0,0,3.92-4.2m-8,10.81a.62.62,0,0,0-.12.42,1,1,0,0,0,0,1.57A14,14,0,0,1,55,39.43a20,20,0,0,1-4.59.71,1.15,1.15,0,0,0-.8,2A15.42,15.42,0,0,1,52,44.87a26.27,26.27,0,0,1-3.62.8,1.14,1.14,0,0,0-1,1.68c.37.65.69,1.32,1,2A36.16,36.16,0,0,1,44,48.09c-.87-.28-1.47.58-1.34,1.35.17,1.08.22,2.1.36,3.11a23.91,23.91,0,0,1-2.53-1.27c0-.19,0-.37,0-.56.05-1.32-1.7-1.46-2.19-.47a.6.6,0,0,0-.15.78c-.1,1.27-.25,2.54-.44,3.8a12.89,12.89,0,0,1-2.87-3.91,1.18,1.18,0,0,0-2,0A28.78,28.78,0,0,1,30.2,55.4c-.54-1.39-1.06-2.78-1.51-4.2a1.18,1.18,0,0,0-2.14-.28q-5.11,4.92-4.12-1.38a1.18,1.18,0,0,0-2-.83,8.78,8.78,0,0,1-4.76,3c.41-1.81.83-3.61,1.21-5.42a1.18,1.18,0,0,0-1.44-1.43,27.72,27.72,0,0,1-5.28.72,18,18,0,0,1,2.88-3.88,1.19,1.19,0,0,0-.83-2c-1.46,0-2.89-.08-4.32-.2a38.09,38.09,0,0,1,4.74-5.68,1.17,1.17,0,0,0-.81-2c-1.18-.12-2.36-.22-3.54-.31,1.33-.35,2.69-.62,4.15-.88a.83.83,0,0,0-.22-1.62c-.86.07-1.7.16-2.52.28-1.39-1-2.75-2.09-4.08-3.18a37.18,37.18,0,0,0,6.88-.77A1.07,1.07,0,0,0,13,23.63c-1-1.29-2-2.6-3-3.94,1.7.13,3.39.33,5.08.6.7.11,1.63-.47,1.3-1.31a16.26,16.26,0,0,1-.82-3.19c.95.38,1.88.79,2.8,1.24a1.11,1.11,0,0,0,1.55-.72.53.53,0,0,0,.41-.58c-.16-1.69-.39-3.37-.58-5.05,1.71.73,3.42,1.49,5.16,2.17a1.08,1.08,0,0,0,1.34-.76,24.14,24.14,0,0,1,1.44-6c1.25,1.8,2.45,3.62,3.79,5.35.56.72,1.63.21,1.88-.5A20.05,20.05,0,0,1,35.7,6a38.28,38.28,0,0,1,2.14,5A1.17,1.17,0,0,0,40,11.2a19,19,0,0,1,3.11-3.75c.06,1.84,0,3.66,0,5.52a1,1,0,0,0,1.93.27,9.94,9.94,0,0,0,.56-2.88,17.25,17.25,0,0,1,4.08-.31,16.46,16.46,0,0,1-2.87,4.07,1.17,1.17,0,0,0,.82,2c2.13-.05,4.23-.17,6.35-.11q-1.27,2.34-2.64,4.64a1.18,1.18,0,0,0,1,1.76,17.55,17.55,0,0,1,5.17.93,28.86,28.86,0,0,1-4,3.75c-.75.61-.21,1.69.52,2l2.42,1.1a24.13,24.13,0,0,0-3.95,4.06"/></g></svg>