<svg xmlns="http://www.w3.org/2000/svg" viewBox="0 0 59.23 57.71"><defs><style>.cls-1{fill:#e06900;}</style></defs><title>847550_45093-O4HX7J</title><g id="Objects"><path class="cls-1" d="M58.48,26.12c.07-3.32-3.27-5.86-6.18-6.69-3.26-.93-9.59.66-12.26-2C37.65,12.64,40.19-.15,32.48,0c-3.56.07-5.95,4.53-7.32,7.21a39,39,0,0,0-3.71,10.85,1.14,1.14,0,0,0-.62-.18c-5.4-.08-15.24-4.18-19.19,1.24-3.45,4.73,4.11,11.09,9,14.87C8.33,39.09-.85,49.66,4.4,53.16c6.15,4.1,14.79-6.54,19.39-9.29C30,40.17,35.86,61.52,43.55,56.4,49.77,52.26,47,42,43.44,36.33c4.76-2.39,14.91-4.45,15-10.21M41.05,34.86a1.18,1.18,0,0,0-.25.25,1.07,1.07,0,0,0-.18,1.42,34.91,34.91,0,0,1,3.59,9.69c1,4.09-2.41,9.52-6.45,5.92a35.6,35.6,0,0,1-3.1-3.39C32.59,46.35,28.53,40,24.43,41c-5.15,1.25-9.46,6.76-13.81,9.49-3.6,2.25-5.15-2-3.55-4.84C8,44.05,9,42.52,10,41a16.34,16.34,0,0,0,2.37-5.63l1.11.88a.43.43,0,0,0,.68-.52,10.7,10.7,0,0,0-1.6-2c0-.3,0-.6,0-.91a.79.79,0,0,0-1.38-.46C7.3,28.6,1.69,24,3.56,20.24c1.28-2.58,7.38-1.28,9.49-1,2.49.36,5.25,1.19,7.78.88a1.22,1.22,0,0,0,1-.9.56.56,0,0,0,.72-.3c1.3-2.46,2.21-5.16,3.41-7.68,1.33-2.81,3.13-7.59,6.36-8.69s3.76,7.54,4,9.22c.29,2.59.42,5.58,2.15,7.66a1,1,0,0,0,1.15.3c3.46,2.75,11.56.9,14.87,3.63,5.93,4.9-10.58,9.54-13.44,11.47"/></g></svg>