<svg xmlns="http://www.w3.org/2000/svg" viewBox="0 0 47.62 45.57"><defs><style>.cls-1{fill:#e06900;}</style></defs><title>847550_45093-O4HX7J</title><g id="Objects"><path class="cls-1" d="M44.79,13.82C40.36,1.45,29.78.66,18.71,2a1.55,1.55,0,0,0-2-.57C4.92,7-2.78,21.93,4.11,34c5.35,9.4,18.14,12.73,28,10.14C45.62,40.66,49,25.52,44.79,13.82M35,39.8c-8.17,5-19.44,1.91-25.94-4.33C-1.4,25.47,7.35,9.18,18.25,4c0,0,.05,0,.08-.06A14.71,14.71,0,0,0,19.82,4c5,.13,10.43-.52,15.17,1.53,6.32,2.74,8.65,12.33,8.87,18.35A17.76,17.76,0,0,1,35,39.8"/><path class="cls-1" d="M25.68,7.29a.22.22,0,0,1,0-.08s0,0,0-.08a.75.75,0,0,0-.13-.27h0a1.13,1.13,0,0,0-1.88,0h0a1,1,0,0,0-.13.27.25.25,0,0,0,0,.08.22.22,0,0,0,0,.08,4,4,0,0,0,0,1.62,1,1,0,0,0,.46.66,1,1,0,0,0,1.37,0,1,1,0,0,0,.45-.66,4.2,4.2,0,0,0,0-1.62"/><path class="cls-1" d="M41.39,19.3a4.29,4.29,0,0,0-2.66-1,1.16,1.16,0,0,0-1.22,1.14c-.4.33-.34,1.14.24,1.23l.35,0a1.16,1.16,0,0,0,.63.16l.81,0a8.94,8.94,0,0,1,.89.09c.84.12,1.84-1,1-1.66"/><path class="cls-1" d="M23.81,34.94a1.21,1.21,0,0,0-2.37-.32c-.1.43-.22.91-.29,1.4A3.32,3.32,0,0,0,21,38a1.24,1.24,0,0,0,2.36,0,2.77,2.77,0,0,0,.13-.57.18.18,0,0,0,.05-.21,8.24,8.24,0,0,1,.11-.85,6.42,6.42,0,0,0,.13-1.45"/><path class="cls-1" d="M10.61,21.13a1.15,1.15,0,0,0-.27-.14.05.05,0,0,1,0,0h0l-.11,0c-.74-.19-2.09-.43-2.71,0a1.62,1.62,0,0,0-.34.35.69.69,0,0,0,0,1.33,2.09,2.09,0,0,0,2.58.49c.05,0,.07-.06.11-.08L10.1,23a.57.57,0,0,0,.18,0h0l0,0a.7.7,0,0,0,.27-.14,1.07,1.07,0,0,0,0-1.67"/><path class="cls-1" d="M32,28c-2.19-1.64-4.63-3.62-7.25-4.5h0c.24-.94.33-2.38-.3-3a1.28,1.28,0,0,0-.63-.36c.18-1.46.33-2.93.49-4.39.14-1.27.76-3.65-.27-4.67a.94.94,0,0,0-1.32,0c-.92.88-.63,3-.63,4.16a51.94,51.94,0,0,0,.16,5.44,1.79,1.79,0,0,0-1.42,1.22,1.93,1.93,0,0,0,.55,2.5,2.72,2.72,0,0,0,1.16.35,1.57,1.57,0,0,0,.48,0h.11a1.2,1.2,0,0,0,.75-.1.91.91,0,0,0,.26.33c2.3,1.7,4.55,3.4,6.76,5.22.8.66,3.31,3.39,4.34,1.64C36.16,30.34,33,28.7,32,28"/></g></svg>