<svg xmlns="http://www.w3.org/2000/svg" viewBox="0 0 59.15 55.99"><defs><style>.cls-1{fill:#e06900;}</style></defs><title>847550_45093-O4HX7J</title><g id="Objects"><path class="cls-1" d="M52.65,11.47c-1.33-4.6-19-5.3-22.75-5.89Q21.24,4.2,12.54,3.23C10,3,5.79,2,3.32,3.24l-.2-.14a.83.83,0,0,0-1.24.48.74.74,0,0,0-.57.92C5.06,16.75,8.08,30.3,15.8,40.77a1.41,1.41,0,0,0,2.16.28c2.15-1.83,4.23-3.72,6.28-5.64a1,1,0,0,0,.9.75,45.16,45.16,0,0,1,11.71,2.23c.07.13.15.26.23.39a1.33,1.33,0,0,0,2.46-.67,81.38,81.38,0,0,0-.19-9.24c-.17-2.72.09-5.7-.42-8.37a.69.69,0,0,0,0-.13,17.83,17.83,0,0,0,4.24-2.18c2.63-1.49,5.15-3.2,7.81-4.64a1.36,1.36,0,0,0,.61-.68h.05a1.11,1.11,0,0,0,1.06-1.4m-29.23,4c2.48,1.33,9.94,7,12.93,5.36a.91.91,0,0,0,.44-.7l.1,0a1.05,1.05,0,0,0-.17.29c-.77,2.22-.23,5-.09,7.33.12,2,.24,3.9.3,5.84-1.63-2.47-3.31-4.9-5.11-7.28a1.09,1.09,0,0,0-.3-.85C27.35,21.16,22,17.45,17.18,13.73,15.46,12.38,13.74,11,12,9.66c3.81,1.89,7.61,3.83,11.41,5.85M17.23,38C10.8,28.57,8.81,17.21,4.16,6.92c1,.82,2.26,1.61,2.77,2,2.81,2.2,5.54,4.49,8.37,6.68,4.52,3.51,8.86,8.19,13.88,11.07C25.26,30.54,21.35,34.39,17.23,38m8.37-3.9c1.91-1.82,3.8-3.66,5.66-5.54,1.09,2.17,2.3,4.27,3.53,6.36a23.2,23.2,0,0,0-9.19-.82M42.14,15.37c-1.2.72-2.42,1.44-3.6,2.2-.42.26-.85.5-1.26.77s-1.08.84-.4.71a.48.48,0,0,0-.36.3.55.55,0,0,0-.17-.17c-4.52-2.59-9.36-4.82-14-7.26C19.51,10.41,16.67,8.58,13.73,7c5.24.51,10.68.63,15.4,1.36C34,9.12,38.93,10,43.8,11c1.14.24,2.44.71,3.75,1.12-1.82,1.07-3.61,2.18-5.41,3.27"/><path class="cls-1" d="M33.56,53.21c-.2-.71-.89-1.1-1.43-1.54-.82-.64-1.61-1.3-2.41-2-.64-.53-1.3-1.06-2-1.56a11.78,11.78,0,0,0-1.13-.56c-.33-.2-.8.22-.56.55s.26.62.5.9c.59.68,1.23,1.32,1.88,1.94s1.49,1.42,2.26,2.12c.56.52,1.18,1.21,2,1.22a.88.88,0,0,0,.85-1.11"/><path class="cls-1" d="M40.32,51.74a18.71,18.71,0,0,0-2.92-2c-1.23-.91-2.27-2-3.47-3a.61.61,0,0,0-.86.86,24.82,24.82,0,0,0,3,3.12c.95.86,2.19,2.11,3.49,2.28a.75.75,0,0,0,.73-1.24"/><path class="cls-1" d="M46.33,49.14c-.22-.47-.52-.59-1-.8a9.56,9.56,0,0,1-1.4-.86c-1-.71-2-1.55-2.92-2.35a.64.64,0,0,0-.9.9A22.05,22.05,0,0,0,43,48.72c.82.65,1.8,1.69,2.9,1.51a.75.75,0,0,0,.44-1.09"/><path class="cls-1" d="M50.77,43.38a21.28,21.28,0,0,1-2.28-1.58c-1.08-.81-2.1-1.7-3.11-2.59a.67.67,0,0,0-1,.95,35.83,35.83,0,0,0,3.25,3.15c.83.72,1.75,1.67,2.92,1.4a.73.73,0,0,0,.17-1.33"/><path class="cls-1" d="M52.58,36.33a12.21,12.21,0,0,0-2.65-1.79,21.38,21.38,0,0,1-3-2.75c-.47-.49-1.34.16-.94.72a18.19,18.19,0,0,0,2.72,3c.82.78,1.94,2,3.08,2.2a.85.85,0,0,0,.82-1.41"/><path class="cls-1" d="M53.15,30a15.81,15.81,0,0,1-4.35-2.85.51.51,0,0,0-.8.62,9.6,9.6,0,0,0,2.46,2.7c.75.6,1.5,1.22,2.51.92A.77.77,0,0,0,53.15,30"/><path class="cls-1" d="M57.22,26c-.42-1-2.14-1.53-3.15-2.07-.68-.37-2.22-1.6-3.07-1.21l0,0s-.07,0-.09,0h0a.42.42,0,0,0-.24.52c-.14-.35,0,.37.09.5a2,2,0,0,0,.52.48c.53.42,1.11.79,1.67,1.18.9.62,2.38,2.08,3.52,1.87A1.09,1.09,0,0,0,57.22,26"/></g></svg>